STARTFONT 2.1
COMMENT Exported by Fony v1.3.6
FONT Leaf Icons
SIZE 13 96 96
FONTBOUNDINGBOX 15 12 0 0
STARTPROPERTIES 6
COPYRIGHT ""
RESOLUTION_X 96
RESOLUTION_Y 96
FONT_ASCENT 13
FONT_DESCENT 0
DEFAULT_CHAR 0
ENDPROPERTIES
CHARS 32
STARTCHAR 033
ENCODING 33
SWIDTH 864 0
DWIDTH 12 0
BBX 6 12 3 0
BITMAP
FC
FC
78
78
78
30
30
00
30
78
78
30
ENDCHAR
STARTCHAR 034
ENCODING 34
SWIDTH 864 0
DWIDTH 12 0
BBX 12 12 0 0
BITMAP
0600
0F00
0900
1980
1980
39C0
39C0
79E0
7FE0
F9F0
F9F0
7FE0
ENDCHAR
STARTCHAR 035
ENCODING 35
SWIDTH 864 0
DWIDTH 12 0
BBX 12 12 0 0
BITMAP
7FE0
8010
BFD0
BFD0
8010
BFD0
BFD0
8010
BFD0
BFD0
8010
7FE0
ENDCHAR
STARTCHAR 036
ENCODING 36
SWIDTH 864 0
DWIDTH 12 0
BBX 12 12 0 0
BITMAP
7FE0
FFF0
C030
C030
FFF0
C030
C030
FFF0
C030
C030
FFF0
7FE0
ENDCHAR
STARTCHAR 037
ENCODING 37
SWIDTH 1008 0
DWIDTH 14 0
BBX 12 12 1 0
BITMAP
1000
2880
55C0
2BE0
17C0
0F80
8F40
AEA0
A150
98A0
4040
3C00
ENDCHAR
STARTCHAR 038
ENCODING 38
SWIDTH 1008 0
DWIDTH 14 0
BBX 14 13 0 0
BITMAP
7FF8
F7FC
EBBC
D51C
EA0C
F41C
F83C
B85C
A8AC
AF54
B3AC
DFDC
61F8
ENDCHAR
STARTCHAR 039
ENCODING 39
SWIDTH 648 0
DWIDTH 9 0
BBX 7 12 1 0
BITMAP
30
38
AC
E6
6C
38
38
6C
E6
AC
38
30
ENDCHAR
STARTCHAR 040
ENCODING 40
SWIDTH 648 0
DWIDTH 9 0
BBX 9 13 0 0
BITMAP
7F00
E780
E380
A980
8C80
C980
E380
E380
C980
8C80
A980
E380
6700
ENDCHAR
STARTCHAR 041
ENCODING 41
SWIDTH 1080 0
DWIDTH 15 0
BBX 13 12 1 0
BITMAP
0F80
3FE0
7070
CF98
9FC8
3060
2720
0F80
0880
0200
0700
0700
ENDCHAR
STARTCHAR 042
ENCODING 42
SWIDTH 1080 0
DWIDTH 15 0
BBX 15 13 0 0
BITMAP
7FFC
F83E
E00E
CFE6
9832
B01A
E7CE
EC6E
F83E
FBBE
FEFE
FC7E
7C7C
ENDCHAR
STARTCHAR 043
ENCODING 43
SWIDTH 648 0
DWIDTH 9 0
BBX 0 0 0 0
BITMAP
ENDCHAR
STARTCHAR 044
ENCODING 44
SWIDTH 648 0
DWIDTH 9 0
BBX 0 0 0 0
BITMAP
ENDCHAR
STARTCHAR 045
ENCODING 45
SWIDTH 648 0
DWIDTH 9 0
BBX 0 0 0 0
BITMAP
ENDCHAR
STARTCHAR 046
ENCODING 46
SWIDTH 648 0
DWIDTH 9 0
BBX 0 0 0 0
BITMAP
ENDCHAR
STARTCHAR 047
ENCODING 47
SWIDTH 576 0
DWIDTH 8 0
BBX 8 12 0 0
BITMAP
3C
C3
99
99
99
99
99
81
99
99
81
FF
ENDCHAR
STARTCHAR 048
ENCODING 48
SWIDTH 576 0
DWIDTH 8 0
BBX 8 12 0 0
BITMAP
3C
FF
81
81
81
81
81
81
81
81
81
FF
ENDCHAR
STARTCHAR 049
ENCODING 49
SWIDTH 576 0
DWIDTH 8 0
BBX 8 12 0 0
BITMAP
3C
FF
81
81
81
81
81
81
81
81
FF
FF
ENDCHAR
STARTCHAR 050
ENCODING 50
SWIDTH 576 0
DWIDTH 8 0
BBX 8 12 0 0
BITMAP
3C
FF
81
81
81
81
81
81
81
FF
FF
FF
ENDCHAR
STARTCHAR 051
ENCODING 51
SWIDTH 576 0
DWIDTH 8 0
BBX 8 12 0 0
BITMAP
3C
FF
81
81
81
81
81
81
FF
FF
FF
FF
ENDCHAR
STARTCHAR 052
ENCODING 52
SWIDTH 576 0
DWIDTH 8 0
BBX 8 12 0 0
BITMAP
3C
FF
81
81
81
81
81
FF
FF
FF
FF
FF
ENDCHAR
STARTCHAR 053
ENCODING 53
SWIDTH 576 0
DWIDTH 8 0
BBX 8 12 0 0
BITMAP
3C
FF
81
81
81
81
FF
FF
FF
FF
FF
FF
ENDCHAR
STARTCHAR 054
ENCODING 54
SWIDTH 576 0
DWIDTH 8 0
BBX 8 12 0 0
BITMAP
3E
FF
81
81
81
FF
FF
FF
FF
FF
FF
FF
ENDCHAR
STARTCHAR 055
ENCODING 55
SWIDTH 576 0
DWIDTH 8 0
BBX 8 12 0 0
BITMAP
3C
FF
81
81
FF
FF
FF
FF
FF
FF
FF
FF
ENDCHAR
STARTCHAR 056
ENCODING 56
SWIDTH 576 0
DWIDTH 8 0
BBX 8 12 0 0
BITMAP
3C
FF
81
FF
FF
FF
FF
FF
FF
FF
FF
FF
ENDCHAR
STARTCHAR 057
ENCODING 57
SWIDTH 576 0
DWIDTH 8 0
BBX 8 12 0 0
BITMAP
3C
FF
FF
FF
FF
FF
FF
FF
FF
FF
FF
FF
ENDCHAR
STARTCHAR 058
ENCODING 58
SWIDTH 576 0
DWIDTH 8 0
BBX 8 12 0 0
BITMAP
3C
FF
EF
EF
CF
CF
81
F3
F3
F7
F7
FF
ENDCHAR
STARTCHAR 059
ENCODING 59
SWIDTH 648 0
DWIDTH 9 0
BBX 0 0 0 0
BITMAP
ENDCHAR
STARTCHAR 060
ENCODING 60
SWIDTH 648 0
DWIDTH 9 0
BBX 0 0 0 0
BITMAP
ENDCHAR
STARTCHAR 061
ENCODING 61
SWIDTH 648 0
DWIDTH 9 0
BBX 0 0 0 0
BITMAP
ENDCHAR
STARTCHAR 062
ENCODING 62
SWIDTH 648 0
DWIDTH 9 0
BBX 0 0 0 0
BITMAP
ENDCHAR
STARTCHAR 063
ENCODING 63
SWIDTH 648 0
DWIDTH 9 0
BBX 0 0 0 0
BITMAP
ENDCHAR
STARTCHAR 064
ENCODING 64
SWIDTH 648 0
DWIDTH 9 0
BBX 0 0 0 0
BITMAP
ENDCHAR
ENDFONT
